<svg width="80" height="24" viewBox="0 0 80 24" fill="none" xmlns="http://www.w3.org/2000/svg">
<path d="M42.1203 20.1148C42.2915 20.0854 42.466 20.0555 42.6355 20.0555C42.8157 20.0555 42.996 20.0555 43.266 20.3262C43.8068 21.0479 41.9144 22.2207 41.3744 22.4016C40.0228 22.9431 38.5814 22.9431 37.2305 22.5819C35.0682 22.0404 34.0771 20.597 34.0771 18.1603V5.70847C33.4465 5.70847 32.9963 5.70847 32.9963 4.89697C32.9963 4.3562 33.1765 4.08475 33.8968 3.63376L39.4827 0.295831C40.0228 -0.0653892 40.8336 -0.245646 40.8336 0.65705V4.08475H42.4552C42.996 4.08475 43.1762 4.44597 43.1762 4.89697C43.1762 5.34796 42.996 5.70847 42.4552 5.70847H40.8336V18.5215C40.8336 18.6118 40.8236 18.702 40.8136 18.7923C40.7937 18.9728 40.7737 19.1532 40.8336 19.3337C41.0407 20.3 41.5634 20.2103 42.1203 20.1148Z" fill="#98FF99"/>
<path fill-rule="evenodd" clip-rule="evenodd" d="M56.7788 4.44691C54.4362 3.36396 52.0038 3.36396 49.6618 4.26594C45.9683 5.71012 44.0767 8.50727 43.8059 12.3867C43.5359 15.7253 44.6167 18.6129 47.2294 20.7781C49.572 22.6733 52.3643 23.1243 55.247 22.5828C57.2291 22.2216 58.9405 21.1394 60.2016 19.5149C60.2016 19.5149 60.2016 19.4252 60.2921 19.4252C60.4723 19.0639 60.2016 18.6129 59.7513 18.5225H59.5711C59.2705 18.5225 58.9699 18.6028 58.6693 18.6831C58.5196 18.7231 58.3699 18.7631 58.2202 18.7932C55.3375 19.3347 52.7248 18.3422 51.4637 15.7253L51.4233 15.6512C50.9048 14.7003 50.5511 14.0517 50.1121 12.1159H59.7513C60.6526 12.1159 60.8322 11.9357 60.8322 11.0337C60.8322 8.05557 59.5711 5.71012 56.7788 4.44691ZM54.977 9.40926C54.977 10.0412 54.6164 10.4017 53.9859 10.4017H50.1121C50.1121 8.7773 50.2924 7.15358 51.193 5.71012C52.0942 4.17617 53.5356 4.26594 54.3464 5.79989C54.977 6.97333 55.0667 8.14605 54.977 9.40926Z" fill="#98FF99"/>
<path fill-rule="evenodd" clip-rule="evenodd" d="M79.3007 20.5977C79.2109 20.1467 79.1204 19.6053 79.1204 19.1543C79.0757 17.6263 79.0533 16.0984 79.0308 14.5705C79.0082 13.0305 78.9856 11.4905 78.9402 9.95058C78.8504 7.06294 77.409 5.078 74.7059 4.26578C71.9137 3.45428 69.2105 3.45428 66.4183 4.44675C65.3374 4.80726 64.3464 5.43922 63.8056 6.52146C63.2655 7.51464 63.3553 8.59689 63.9858 9.4091C64.8871 10.4921 66.1482 10.4921 67.3188 10.2213C68.2201 10.0404 68.7609 9.22885 68.8507 8.14589L68.8837 7.91357C68.9625 7.35962 69.0413 6.80525 69.1207 6.25143C69.3017 5.34874 69.8418 4.80726 70.7423 4.80726C71.5531 4.80726 72.0034 5.25896 72.1837 6.25143C72.2291 6.79459 72.2517 7.36072 72.2743 7.92677V7.92688C72.2968 8.48864 72.3192 9.05031 72.3639 9.58936C72.5036 11.0579 69.8304 11.7136 68.0748 12.1443C67.5648 12.2694 67.1322 12.3755 66.8686 12.477C65.2469 13.0185 63.8056 13.8307 62.8152 15.2742C61.1031 17.7101 61.7337 21.0487 64.1661 22.3119C66.9583 23.7554 71.1028 23.2146 72.8142 19.7855C73.355 21.0487 74.1658 21.9514 75.4269 22.3119C75.9886 22.4723 76.6208 22.5616 77.1975 22.6431C77.2689 22.6532 77.3395 22.6632 77.409 22.6732C78.1294 22.7636 80.6516 23.0337 79.8415 21.7705C79.7289 21.3764 79.5812 21.1229 79.4642 20.9221L79.464 20.9219C79.3937 20.8011 79.3344 20.6994 79.3007 20.5977ZM72.3639 17.2591C72.3639 18.2516 71.3729 19.0638 70.3825 18.9733C69.3915 18.8835 68.7609 18.2516 68.6711 17.1686C68.5799 16.3571 68.8507 15.5449 69.3017 14.9129C70.1118 13.8307 71.1029 13.1083 72.3639 12.3865C72.3639 12.928 72.3739 13.4694 72.3839 14.0108C72.4038 15.0936 72.4238 16.1762 72.3639 17.2591Z" fill="#98FF99"/>
<path d="M7.43955 4.05747C8.7935 3.71617 10.4812 3.81183 12.0337 5.10727C12.8492 5.7877 13.6773 5.85419 14.4089 5.68551C14.8131 5.59232 15.1622 5.43196 15.4275 5.2751C15.6897 5.12005 15.8794 4.96276 15.9598 4.86897C16.4211 4.3309 17.2312 4.26864 17.7693 4.72991C18.3073 5.19118 18.3696 6.0013 17.9083 6.53937C17.3734 7.1633 16.2842 7.887 14.9855 8.18641C13.6158 8.5022 11.9271 8.36084 10.3895 7.0779C9.58906 6.41004 8.7913 6.36353 8.06688 6.54613C7.28283 6.74377 6.64024 7.2077 6.41087 7.42948C5.90137 7.92213 5.08897 7.90846 4.59633 7.39896C4.10369 6.88945 4.11736 6.07706 4.62686 5.58441C5.11894 5.10861 6.14601 4.38354 7.43955 4.05747Z" fill="#98FF99"/>
<path d="M3.6841 3.72827C3.94447 3.0746 3.61953 2.32672 2.95832 2.05781C2.29711 1.78891 1.55002 2.10082 1.28965 2.75449C-1.1846 8.96602 0.000787777 16.0906 3.99354 20.3298C4.48303 20.8495 5.29746 20.8825 5.81262 20.4034C6.32778 19.9244 6.34859 19.1147 5.8591 18.595C2.65438 15.1925 1.52084 9.15909 3.6841 3.72827Z" fill="#98FF99"/>
<path d="M19.5487 2.05781C18.8875 2.32672 18.5625 3.0746 18.8229 3.72827C20.9861 9.15909 19.8526 15.1925 16.6479 18.595C16.1584 19.1147 16.1792 19.9244 16.6944 20.4034C17.2095 20.8825 18.024 20.8495 18.5134 20.3298C22.5062 16.0906 23.6916 8.96602 21.2173 2.75449C20.957 2.10082 20.2099 1.78891 19.5487 2.05781Z" fill="#98FF99"/>
<path d="M8.83329 19.616C8.12457 19.616 7.55004 20.1905 7.55004 20.8992C7.55004 21.608 8.12457 22.1825 8.83329 22.1825H13.5896C14.2983 22.1825 14.8729 21.608 14.8729 20.8992C14.8729 20.1905 14.2983 19.616 13.5896 19.616H8.83329Z" fill="#98FF99"/>
<path d="M24.6421 7.32392V7.27211C24.6421 6.56338 25.2166 5.98885 25.9254 5.98885C26.6341 5.98885 27.2086 6.56338 27.2086 7.27211V7.32392C27.2086 8.03264 26.6341 8.60717 25.9254 8.60717C25.2166 8.60717 24.6421 8.03264 24.6421 7.32392Z" fill="#98FF99"/>
<path d="M26.0611 11.5522C25.3563 11.4779 24.7247 11.989 24.6504 12.6938C24.5317 13.8191 24.2165 14.9059 23.9208 15.7265C23.7744 16.1328 23.6362 16.4645 23.536 16.6917C23.4871 16.8027 23.4369 16.9133 23.3834 17.0222L23.383 17.0229C23.0646 17.6557 23.3193 18.4268 23.952 18.7456C24.5817 19.0629 25.3488 18.8124 25.6706 18.1865C25.6706 18.1865 25.817 17.88 25.8844 17.7271C26.0046 17.4545 26.1657 17.0672 26.3353 16.5965C26.6716 15.6632 27.0549 14.3645 27.2027 12.9629C27.277 12.2581 26.7659 11.6265 26.0611 11.5522Z" fill="#98FF99"/>
</svg>
